<?xml version="1.0" standalone="no"?><!DOCTYPE svg PUBLIC "-//W3C//DTD SVG 1.1//EN" "http://www.w3.org/Graphics/SVG/1.1/DTD/svg11.dtd"><svg t="1623640616876" class="icon" viewBox="0 0 1024 1024" version="1.1" xmlns="http://www.w3.org/2000/svg" p-id="3429" xmlns:xlink="http://www.w3.org/1999/xlink" width="32" height="32"><defs><style type="text/css"></style></defs><path d="M879 960H147a82.1 82.1 0 0 1-82-82V466a82.1 82.1 0 0 1 82-82h732a82.1 82.1 0 0 1 82 82v412a82.1 82.1 0 0 1-82 82zM147 448a18.24 18.24 0 0 0-18 18v412a18.24 18.24 0 0 0 18 18h732a18.24 18.24 0 0 0 18-18V466a18.24 18.24 0 0 0-18-18z" fill="#231815" p-id="3430"></path><path d="M705 442a32 32 0 0 1-32-32V288c0-88.22-71.78-160-160-160s-160 71.78-160 160v122a32 32 0 0 1-64 0V288c0-59.62 23.36-115.81 65.77-158.23S453.38 64 513 64s115.81 23.36 158.23 65.77S737 228.38 737 288v122a32 32 0 0 1-32 32z" fill="#231815" p-id="3431"></path><path d="M385 544m32 0l192 0q32 0 32 32l0 0q0 32-32 32l-192 0q-32 0-32-32l0 0q0-32 32-32Z" fill="#231815" p-id="3432"></path><path d="M481 576m32 0l0 0q32 0 32 32l0 160q0 32-32 32l0 0q-32 0-32-32l0-160q0-32 32-32Z" fill="#231815" p-id="3433"></path></svg>