<?xml version="1.0" standalone="no"?><!DOCTYPE svg PUBLIC "-//W3C//DTD SVG 1.1//EN" "http://www.w3.org/Graphics/SVG/1.1/DTD/svg11.dtd"><svg t="1623641505959" class="icon" viewBox="0 0 1024 1024" version="1.1" xmlns="http://www.w3.org/2000/svg" p-id="4474" xmlns:xlink="http://www.w3.org/1999/xlink" width="32" height="32"><defs><style type="text/css"></style></defs><path d="M866.602667 128h-246.869334a5.888 5.888 0 0 0-5.845333 5.888v54.826667c0 3.242667 2.645333 5.888 5.845333 5.888h157.141334l-195.242667 195.242666a279.808 279.808 0 0 0-171.52-58.069333 280.064 280.064 0 0 0-199.424 82.645333A280.661333 280.661333 0 0 0 128 613.888c0 75.306667 29.397333 146.261333 82.688 199.424A280.064 280.064 0 0 0 410.112 896a280.064 280.064 0 0 0 199.466667-82.688 280.064 280.064 0 0 0 82.645333-199.424 279.765333 279.765333 0 0 0-57.984-171.349333L829.44 247.466667v156.8c0 3.242667 2.645333 5.888 5.845333 5.888h54.869334A5.888 5.888 0 0 0 896 404.224V157.44A29.44 29.44 0 0 0 866.602667 128zM410.112 821.546667a207.914667 207.914667 0 0 1-207.658667-207.658667A207.914667 207.914667 0 0 1 410.112 406.186667a207.914667 207.914667 0 0 1 207.701333 207.701333 207.914667 207.914667 0 0 1-207.701333 207.658667z" p-id="4475"></path></svg>