<?xml version="1.0" standalone="no"?><!DOCTYPE svg PUBLIC "-//W3C//DTD SVG 1.1//EN" "http://www.w3.org/Graphics/SVG/1.1/DTD/svg11.dtd"><svg t="1623641534621" class="icon" viewBox="0 0 1024 1024" version="1.1" xmlns="http://www.w3.org/2000/svg" p-id="4627" xmlns:xlink="http://www.w3.org/1999/xlink" width="32" height="32"><defs><style type="text/css"></style></defs><path d="M702.08 547.029333A269.696 269.696 0 0 0 780.8 355.84a269.184 269.184 0 0 0-78.72-191.232A266.368 266.368 0 0 0 512 85.333333a265.984 265.984 0 0 0-190.037333 79.232A269.738667 269.738667 0 0 0 243.2 355.84a269.525333 269.525333 0 0 0 78.677333 191.232 265.386667 265.386667 0 0 0 154.197334 76.842667V725.333333h-107.946667a7.637333 7.637333 0 0 0-7.552 7.637334v57.130666c0 4.181333 3.413333 7.594667 7.552 7.594667h107.946667v133.333333c0 4.224 3.413333 7.637333 7.552 7.637334h56.746666c4.181333 0 7.594667-3.413333 7.594667-7.637334v-133.333333h107.904c4.181333 0 7.594667-3.413333 7.594667-7.594667v-57.173333a7.637333 7.637333 0 0 0-7.594667-7.594667h-107.904v-101.418666a266.154667 266.154667 0 0 0 154.112-76.885334zM512 553.898667a195.072 195.072 0 0 1-139.221333-58.026667 197.376 197.376 0 0 1-57.6-140.074667 197.546667 197.546667 0 0 1 57.6-140.074666A194.517333 194.517333 0 0 1 512 157.696c52.650667 0 101.973333 20.608 139.221333 58.026667a197.333333 197.333333 0 0 1 57.642667 140.074666 197.546667 197.546667 0 0 1-57.6 140.117334A195.072 195.072 0 0 1 512 553.941333z" p-id="4628"></path></svg>